<svg width="14" height="12" viewBox="0 0 14 12" fill="none" xmlns="http://www.w3.org/2000/svg">
<path fill-rule="evenodd" clip-rule="evenodd" d="M0 0H14V7.9711H0V0Z" fill="#B20000"/>
<path fill-rule="evenodd" clip-rule="evenodd" d="M0 7.9711H14V12H0V7.9711Z" fill="#429F00"/>
<path fill-rule="evenodd" clip-rule="evenodd" d="M0 0H1.55039V12H0V0Z" fill="white"/>
<path fill-rule="evenodd" clip-rule="evenodd" d="M0.0739746 0.203907H0.147803V0.407813H0.0739746V0.203907ZM0.295459 0.203907H0.516943V0.407813H0.295459V0.203907ZM0.369287 0H0.443115V0.203907H0.369287V0ZM0.738427 0H0.812255V0.203907H0.738427V0ZM1.03374 0.203907H1.25522V0.407813H1.03374V0.203907ZM1.10757 0H1.1814V0.203907H1.10757V0ZM0.221631 0.407813H0.369287V0.609376H0.221631V0.407813ZM0.443115 0.407813H0.590771V0.609376H0.443115V0.407813ZM0.959912 0.407813H1.10757V0.609376H0.959912V0.407813ZM1.1814 0.407813H1.32905V0.609376H1.1814V0.407813ZM0.147803 0.609376H0.295459V0.813282H0.147803V0.609376ZM0.516943 0.609376H0.664599V0.813282H0.516943V0.609376ZM0.886084 0.609376H1.03374V0.813282H0.886084V0.609376ZM1.25522 0.609376H1.40288V0.813282H1.25522V0.609376ZM1.40288 0.203907H1.47671V0.407813H1.40288V0.203907ZM0.0739746 0.813282H0.221631V1.01719H0.0739746V0.813282ZM0.590771 0.813282H0.738427V1.01719H0.590771V0.813282ZM1.32905 0.813282H1.47671V1.01719H1.32905V0.813282ZM0.147803 1.42266H0.295459V1.62656H0.147803V1.42266ZM0.221631 1.62656H0.369287V1.83047H0.221631V1.62656ZM0.516943 1.425H0.664599V1.62656H0.516943V1.425ZM0.443115 1.62656H0.590771V1.83047H0.443115V1.62656ZM0.295459 1.83047H0.516943V2.03438H0.295459V1.83047Z" fill="#B20000"/>
<path fill-rule="evenodd" clip-rule="evenodd" d="M0.36914 2.03436H0.442968V2.23827H0.36914V2.03436ZM0.885937 1.42499H1.03359V1.62655H0.885937V1.42499ZM0.959765 1.62655H1.10742V1.83046H0.959765V1.62655ZM1.25508 1.42499H1.40273V1.62655H1.25508V1.42499ZM1.18125 1.62655H1.32891V1.83046H1.18125V1.62655ZM1.03359 1.83046H1.25508V2.03436H1.03359V1.83046ZM1.10742 2.03436H1.18125V2.23827H1.10742V2.03436ZM0.738281 1.82811H0.812109V2.03202H0.738281V1.82811ZM0 1.82811H0.0738281V2.03202H0V1.82811ZM1.47656 1.82811H1.55039V2.03202H1.47656V1.82811ZM0.36914 2.8453H0.442968V3.0492H0.36914V2.8453ZM0.295312 3.05155H0.516796V3.25311H0.295312V3.05155ZM0.221484 3.25311H0.590625V3.45702H0.221484V3.25311ZM1.10742 2.84764H1.18125V3.05155H1.10742V2.84764ZM1.03359 3.05155H1.25508V3.25311H1.03359V3.05155ZM0.959765 3.25311H1.32891V3.45702H0.959765V3.25311ZM1.03359 4.27029H1.40273V4.4742H1.03359V4.27029ZM0.885937 3.45702H1.40273V3.66092H0.885937V3.45702ZM0.147656 3.45702H0.664453V3.66092H0.147656V3.45702ZM0.221484 4.4742H0.442968V4.67811H0.221484V4.4742ZM0.147656 4.27029H0.516796V4.4742H0.147656V4.27029ZM1.18125 3.86717H1.55039V4.07108H1.18125V3.86717ZM1.10742 4.47654H1.32891V4.68045H1.10742V4.47654Z" fill="#B20000"/>
<path fill-rule="evenodd" clip-rule="evenodd" d="M0.295312 4.67814H0.36914V4.88204H0.295312V4.67814ZM1.18125 4.67814H1.25508V4.88204H1.18125V4.67814ZM0 3.86485H0.36914V4.06876H0V3.86485ZM0.664453 4.27032H0.885937V4.47423H0.664453V4.27032ZM0.738281 4.47657H0.812109V4.68048H0.738281V4.47657ZM0.516796 3.8672H1.03359V4.0711H0.516796V3.8672ZM0.812109 0.813293H0.959765V1.0172H0.812109V0.813293ZM0.664453 1.0172H0.885937V1.22111H0.664453V1.0172ZM0.590625 1.22111H0.738281V1.42267H0.590625V1.22111ZM0.812109 1.22111H0.959765V1.42267H0.812109V1.22111ZM0 1.0172H0.147656V1.22111H0V1.0172ZM0.0738281 1.22111H0.221484V1.42267H0.0738281V1.22111ZM1.40273 1.0172H1.55039V1.21876H1.40273V1.0172ZM1.32891 1.21876H1.47656V1.42032H1.32891V1.21876ZM0 3.04689H0.0738281V3.25079H0V3.04689ZM1.47656 3.04689H1.55039V3.25079H1.47656V3.04689ZM0.664453 4.67579H0.885937V4.8797H0.664453V4.67579ZM0.590625 4.8797H0.738281V5.08126H0.590625V4.8797ZM0.812109 4.8797H0.959765V5.08126H0.812109V4.8797ZM0.516796 5.08126H0.664453V5.28517H0.516796V5.08126ZM0.885937 5.08126H1.03359V5.28517H0.885937V5.08126ZM0.442968 5.28517H0.590625V5.48907H0.442968V5.28517ZM0.959765 5.28517H1.10742V5.48907H0.959765V5.28517ZM0.36914 5.49142H0.516796V5.69532H0.36914V5.49142ZM1.03359 5.49142H1.18125V5.69532H1.03359V5.49142ZM0.221484 5.69532H0.442968V5.89923H0.221484V5.69532ZM1.10742 5.69532H1.32891V5.89923H1.10742V5.69532ZM1.25508 5.49142H1.40273V5.69532H1.25508V5.49142ZM1.32891 5.28751H1.47656V5.49142H1.32891V5.28751ZM1.40273 5.0836H1.55039V5.28751H1.40273V5.0836ZM0.147656 5.49142H0.295312V5.69532H0.147656V5.49142ZM0.0738281 5.28751H0.221484V5.49142H0.0738281V5.28751ZM0 5.08595H0.147656V5.28985H0V5.08595ZM0.295312 5.90157H0.36914V6.10313H0.295312V5.90157ZM1.18125 5.90157H1.25508V6.10313H1.18125V5.90157ZM0.738281 5.2922H0.812109V5.49376H0.738281V5.2922ZM0.516796 5.90157H0.590625V6.10313H0.516796V5.90157ZM0.959765 5.90157H1.03359V6.10313H0.959765V5.90157ZM0.738281 5.90157H0.812109V6.10313H0.738281V5.90157ZM0 5.90157H0.0738281V6.10313H0L0 5.90157ZM1.47656 5.90157H1.55039V6.10313H1.47656V5.90157ZM0.738281 3.05157H0.812109V3.25314H0.738281V3.05157ZM0.36914 1.0172H0.442968V1.22111H0.36914V1.0172ZM1.10742 1.0172H1.18125V1.22111H1.10742V1.0172ZM0.664453 2.43985H0.885937V2.64376H0.664453V2.43985ZM0.516796 2.64376H0.738281V2.84767H0.516796V2.64376ZM0.590625 2.84767H0.664453V3.05157H0.590625V2.84767ZM0.442968 2.43985H0.590625V2.64376H0.442968V2.43985ZM0.516796 2.23829H0.738281V2.43985H0.516796V2.23829ZM0.590625 2.03439H0.664453V2.23829H0.590625V2.03439ZM0.812109 2.23829H1.03359V2.43985H0.812109V2.23829ZM0.885937 2.03439H0.959765V2.23829H0.885937V2.03439ZM0.959765 2.43985H1.10742V2.64376H0.959765V2.43985ZM0.812109 2.64376H1.03359V2.84767H0.812109V2.64376ZM0.885937 2.84767H0.959765V3.05157H0.885937V2.84767ZM1.18125 2.43985H1.32891V2.64376H1.18125V2.43985ZM1.25508 2.23829H1.47656V2.43985H1.25508V2.23829ZM1.40273 2.43985H1.55039V2.64376H1.40273V2.43985ZM1.25508 2.64376H1.47656V2.84767H1.25508V2.64376ZM1.32891 2.84767H1.40273V3.05157H1.32891V2.84767ZM1.32891 2.03439H1.40273V2.23829H1.32891V2.03439ZM0 2.43751H0.147656V2.64142H0V2.43751ZM0.0738281 2.23595H0.295312V2.43751H0.0738281V2.23595ZM0.221484 2.43751H0.36914V2.64142H0.221484V2.43751ZM0.0738281 2.64142H0.295312V2.84532H0.0738281V2.64142Z" fill="#B20000"/>
<path fill-rule="evenodd" clip-rule="evenodd" d="M0.147656 2.84764H0.221484V3.05155H0.147656V2.84764ZM0.147656 2.03436H0.221484V2.23827H0.147656V2.03436ZM0.0738281 3.66093H0.36914V3.86483H0.0738281V3.66093ZM0.442968 3.66093H0.738281V3.86483H0.442968V3.66093ZM0.812109 3.66093H1.10742V3.86483H0.812109V3.66093ZM1.18125 3.66093H1.47656V3.86483H1.18125V3.66093ZM0.590625 4.06874H0.959765V4.2703H0.590625V4.06874ZM0.0738281 4.06874H0.442968V4.2703H0.0738281V4.06874ZM1.10742 4.06874H1.47656V4.2703H1.10742V4.06874ZM1.47656 4.88202H1.55039V5.08358H1.47656V4.88202ZM0 4.88202H0.0738281V5.08358H0V4.88202ZM0.0738281 11.7961H0.147656V11.5945H0.0738281V11.7961ZM0.295312 11.7961H0.516796V11.5945H0.295312V11.7961ZM0.36914 12H0.442968V11.7961H0.36914V12ZM0.738281 12H0.812109V11.7961H0.738281V12ZM1.03359 11.7961H1.25508V11.5922H1.03359V11.7961ZM1.10742 12H1.18125V11.7961H1.10742V12ZM0.221484 11.5922H0.36914V11.3906H0.221484V11.5922ZM0.442968 11.5922H0.590625V11.3906H0.442968V11.5922ZM0.959765 11.5922H1.10742V11.3906H0.959765V11.5922ZM1.18125 11.5922H1.32891V11.3906H1.18125V11.5922ZM0.516796 11.3906H0.664453V11.1867H0.516796V11.3906ZM0.885937 11.3906H1.03359V11.1867H0.885937V11.3906ZM1.25508 11.3906H1.40273V11.1867H1.25508V11.3906ZM1.40273 11.7961H1.47656V11.5922H1.40273V11.7961ZM0.0738281 11.1867H0.221484V10.9828H0.0738281V11.1867ZM0.590625 11.1867H0.738281V10.9828H0.590625V11.1867ZM1.32891 11.1867H1.47656V10.9828H1.32891V11.1867ZM0.147656 10.5773H0.295312V10.3734H0.147656V10.5773ZM0.221484 10.3734H0.36914V10.1695H0.221484V10.3734ZM0.516796 10.5773H0.664453V10.3734H0.516796V10.5773ZM0.442968 10.3734H0.590625V10.1695H0.442968V10.3734ZM0.295312 10.1695H0.516796V9.96562H0.295312V10.1695ZM0.36914 9.96562H0.442968V9.76406H0.36914V9.96562ZM0.885937 10.575H1.03359V10.3734H0.885937V10.575ZM0.959765 10.3734H1.10742V10.1695H0.959765V10.3734ZM1.25508 10.5773H1.40273V10.3734H1.25508V10.5773ZM1.18125 10.3734H1.32891V10.1695H1.18125V10.3734ZM1.03359 10.1695H1.25508V9.96562H1.03359V10.1695ZM1.10742 9.96562H1.18125V9.76406H1.10742V9.96562ZM0.738281 10.1719H0.812109V9.96796H0.738281V10.1719ZM0 10.1719H0.0738281V9.96796H0V10.1719ZM1.47656 10.1719H1.55039V9.96796H1.47656V10.1719ZM0.36914 9.15468H0.442968V8.95078H0.36914V9.15468ZM0.295312 8.94843H0.516796V8.74687H0.295312V8.94843ZM0.221484 8.74687H0.590625V8.54296H0.221484V8.74687ZM1.10742 9.15234H1.18125V8.94843H1.10742V9.15234Z" fill="#B20000"/>
<path fill-rule="evenodd" clip-rule="evenodd" d="M1.03359 8.94845H1.25508V8.74688H1.03359V8.94845ZM0.959765 8.74688H1.32891V8.54298H0.959765V8.74688ZM1.03359 7.7297H1.40273V7.52345H1.03359V7.7297ZM0.885937 8.54298H1.40273V8.33907H0.885937V8.54298ZM0.147656 8.54298H0.664453V8.33907H0.147656V8.54298ZM0.221484 7.52579H0.442968V7.32188H0.221484V7.52579ZM0.147656 7.7297H0.516796V7.52345H0.147656V7.7297ZM1.18125 8.13282H1.55039V7.92891H1.18125V8.13282ZM1.10742 7.52345H1.32891V7.31954H1.10742V7.52345ZM0 8.13282H0.36914V7.92891H0V8.13282ZM0.664453 7.72735H0.885937V7.52345H0.664453V7.72735ZM0.738281 7.52345H0.812109V7.31954H0.738281V7.52345ZM0.516796 8.13282H1.03359V7.92891H0.516796V8.13282ZM0.812109 11.1844H0.959765V10.9805H0.812109V11.1844ZM0.664453 10.9805H0.885937V10.7813H0.664453V10.9805ZM0.590625 10.7766H0.738281V10.5727H0.590625V10.7766ZM0.812109 10.7766H0.959765V10.5727H0.812109V10.7766ZM0 10.9828H0.147656V10.7813H0V10.9828ZM0.0738281 10.7789H0.221484V10.5774H0.0738281V10.7789ZM1.40273 10.9828H1.55039V10.7813H1.40273V10.9828ZM1.32891 10.7789H1.47656V10.5774H1.32891V10.7789ZM0 8.95313H0.0738281V8.74923H0V8.95313ZM1.47656 8.95313H1.55039V8.74923H1.47656V8.95313ZM0.590625 7.12032H0.738281V6.91876H0.590625V7.12032ZM0.812109 7.12032H0.959765V6.91876H0.812109V7.12032ZM0.516796 6.91876H0.664453V6.71485H0.516796V6.91876ZM0.885937 6.91876H1.03359V6.71485H0.885937V6.91876ZM0.442968 6.71485H0.590625V6.51094H0.442968V6.71485ZM0.959765 6.71485H1.10742V6.51094H0.959765V6.71485ZM0.36914 6.5086H0.516796V6.30469H0.36914V6.5086ZM1.03359 6.5086H1.18125V6.30469H1.03359V6.5086ZM0.221484 6.30469H0.442968V6.10079H0.221484V6.30469ZM1.10742 6.30469H1.32891V6.10079H1.10742V6.30469ZM1.25508 6.5086H1.40273V6.30469H1.25508V6.5086ZM1.32891 6.71251H1.47656V6.5086H1.32891V6.71251ZM1.40273 6.91641H1.55039V6.71251H1.40273V6.91641ZM0.147656 6.5086H0.295312V6.30469H0.147656V6.5086ZM0.0738281 6.71251H0.221484V6.5086H0.0738281V6.71251ZM0 6.91407H0.147656V6.71016H0V6.91407ZM0.295312 6.09844H0.36914V5.89688H0.295312V6.09844ZM0.738281 6.70782H0.812109V6.50626H0.738281V6.70782ZM0.738281 8.9461H0.812109V8.74454H0.738281V8.9461ZM0.36914 10.9805H0.442968V10.7813H0.36914V10.9805ZM1.10742 10.9805H1.18125V10.7813H1.10742V10.9805ZM0.664453 9.56251H0.885937V9.3586H0.664453V9.56251ZM0.516796 9.3586H0.738281V9.1547H0.516796V9.3586ZM0.590625 9.1547H0.664453V8.95079H0.590625V9.1547ZM0.442968 9.56251H0.590625V9.3586H0.442968V9.56251ZM0.516796 9.76173H0.738281V9.56251H0.516796V9.76173ZM0.590625 9.96564H0.664453V9.76407H0.590625V9.96564ZM0.812109 9.76173H1.03359V9.56251H0.812109V9.76173ZM0.885937 9.96564H0.959765V9.76407H0.885937V9.96564ZM0.959765 9.56017H1.10742V9.35626H0.959765V9.56017ZM0.812109 9.35626H1.03359V9.15235H0.812109V9.35626ZM0.885937 9.15235H0.959765V8.94845H0.885937V9.15235ZM1.18125 9.56251H1.32891V9.3586H1.18125V9.56251ZM1.25508 9.76173H1.47656V9.56251H1.25508V9.76173ZM1.40273 9.56017H1.55039V9.35626H1.40273V9.56017ZM1.25508 9.35626H1.47656V9.15235H1.25508V9.35626ZM1.32891 9.15235H1.40273V8.94845H1.32891V9.15235ZM1.32891 9.96564H1.40273V9.76407H1.32891V9.96564ZM0 9.56251H0.147656V9.3586H0V9.56251ZM0.0738281 9.76173H0.295312V9.56251H0.0738281V9.76173Z" fill="#B20000"/>
<path fill-rule="evenodd" clip-rule="evenodd" d="M0.221484 9.56016H0.36914V9.35625H0.221484V9.56016ZM0.0738281 9.35625H0.295312V9.15234H0.0738281V9.35625ZM0.147656 9.15234H0.221484V8.94844H0.147656V9.15234ZM0.147656 9.96562H0.221484V9.76406H0.147656V9.96562ZM0.0738281 8.33906H0.36914V8.13516H0.0738281V8.33906ZM0.442968 8.33906H0.738281V8.13516H0.442968V8.33906ZM0.812109 8.33906H1.10742V8.13516H0.812109V8.33906ZM1.18125 8.33906H1.47656V8.13516H1.18125V8.33906ZM0.590625 7.93125H0.959765V7.72969H0.590625V7.93125ZM0.0738281 7.93125H0.442968V7.72969H0.0738281V7.93125ZM1.10742 7.93125H1.47656V7.72969H1.10742V7.93125ZM1.47656 7.12031H1.55039V6.91406H1.47656V7.12031ZM0 7.12031H0.0738281V6.91406H0V7.12031ZM0.664453 6.10078H0.738281V6.30469H0.664453V6.10078ZM0.812109 6.10078H0.885937V6.30469H0.812109V6.10078ZM0.812109 5.69531H0.885937V5.89922H0.812109V5.69531ZM0.664453 5.69531H0.738281V5.89922H0.664453V5.69531ZM0.147656 11.1867H0.295312V11.3906H0.147656V11.1867ZM1.18125 7.32187H1.25508V7.11797H1.18125V7.32187ZM0.295312 7.32187H0.36914V7.11797H0.295312V7.32187ZM0.664453 7.11797H0.885937V7.32187H0.664453V7.11797Z" fill="#B20000"/>
</svg>
