<svg width="24" height="24" viewBox="0 0 24 24" fill="none" xmlns="http://www.w3.org/2000/svg">
<path fill-rule="evenodd" clip-rule="evenodd" d="M6.27292 6.40779L11.4076 4.12653C11.7817 3.95782 12.2218 3.95782 12.5959 4.12653L17.7306 6.40779C18.2587 6.64252 18.6035 7.17066 18.6035 7.75014V11.1977C18.6035 15.2688 15.7867 19.0758 12.0017 20C8.21676 19.0758 5.40002 15.2688 5.40002 11.1977V7.75014C5.40002 7.17066 5.74478 6.64252 6.27292 6.40779ZM8.11404 13.1782L10.0139 15.078C10.2999 15.3641 10.7694 15.3641 11.0481 15.078L15.8821 10.2441C16.1681 9.95804 16.1681 9.49592 15.8821 9.20985C15.596 8.92377 15.1339 8.92377 14.8478 9.20985L10.5347 13.523L9.14831 12.1439C8.86223 11.8579 8.40011 11.8579 8.11404 12.1439C7.97668 12.281 7.89949 12.467 7.89949 12.6611C7.89949 12.8551 7.97668 13.0412 8.11404 13.1782Z" fill="#2F80ED"/>
</svg>
