<svg width="50" height="16" viewBox="0 0 50 16" fill="none" xmlns="http://www.w3.org/2000/svg">
<path d="M29.0611 0.629532C31.3585 -0.241479 33.9644 -0.175412 36.2741 0.62279C36.0926 1.70279 35.9014 2.78144 35.7172 3.86144C34.4627 3.26144 33.0334 2.99043 31.6451 3.16302C31.0404 3.24661 30.3579 3.47582 30.074 4.0583C29.9006 4.44122 30.1272 4.87133 30.4384 5.10863C31.5714 5.99043 33.0375 6.31942 34.1501 7.23492C35.0428 7.90908 35.7213 8.95133 35.6694 10.096C35.7322 11.5428 34.9746 12.9572 33.7883 13.7891C32.2731 14.8637 30.3592 15.1819 28.5314 15.2008C27.0353 15.1185 25.4996 14.9823 24.1045 14.4026C24.241 13.2862 24.4785 12.1819 24.656 11.0695C26.2135 11.8098 27.9608 12.2601 29.6945 12.0241C30.2282 11.9298 30.7906 11.7518 31.1537 11.3311C31.4445 11.0075 31.4977 10.483 31.2343 10.1298C30.8425 9.59043 30.2064 9.31403 29.6262 9.02414C28.3854 8.45515 27.0844 7.80391 26.2982 6.65111C25.5638 5.60616 25.6347 4.18504 26.1849 3.07537C26.75 1.90908 27.8694 1.10144 29.0611 0.629532Z" fill="#0E4595"/>
<path d="M0.00136507 0.281665C2.1418 0.284362 4.28223 0.283013 6.42267 0.280317C6.96323 0.276272 7.55841 0.367957 7.95291 0.767058C8.28736 1.0947 8.37609 1.57065 8.46618 2.00886C8.89072 4.10953 9.3603 6.20346 9.77938 8.30549C8.70916 5.70459 6.67111 3.54728 4.17439 2.22189C2.86392 1.50728 1.45107 0.986834 0 0.628182C0 0.54189 0.00136507 0.367957 0.00136507 0.281665Z" fill="#FFAA00"/>
<path d="M14.1207 0.274924C15.5664 0.250654 17.0106 0.270879 18.4562 0.264138C16.3595 5.16526 14.1931 10.0367 12.0895 14.9352C10.6453 14.9594 9.19966 14.9405 7.75405 14.9459C6.56097 10.7041 5.33923 6.47043 4.17346 2.22189C6.67018 3.54728 8.70823 5.70459 9.77845 8.30549L9.7962 8.3392C9.92861 8.95942 10.061 9.58099 10.173 10.2066C11.508 6.90324 12.798 3.58234 14.1207 0.274924Z" fill="#0E4595"/>
<path d="M20.0474 0.262806C21.4056 0.262806 22.7652 0.269548 24.1235 0.26011C23.3044 5.15854 22.4444 10.0502 21.5981 14.9446C20.2344 14.9473 18.8707 14.9446 17.507 14.946C18.356 10.0516 19.186 5.15449 20.0474 0.262806Z" fill="#0E4595"/>
<path d="M46.6379 0.27088C45.4789 0.269531 44.3186 0.242565 43.161 0.281666C42.3939 0.308633 41.6458 0.737397 41.3728 1.46818C39.3498 5.96751 37.339 10.4736 35.3282 14.9783C36.7629 14.985 38.1963 14.9769 39.631 14.9823C39.9094 14.2502 40.2029 13.5248 40.4705 12.7886C42.1932 12.7684 43.9187 12.7549 45.6414 12.7967C45.7888 13.5262 45.9622 14.2516 46.1219 14.9796C47.3859 14.981 48.65 14.9823 49.914 14.9783C48.8452 10.0704 47.7286 5.17335 46.6379 0.27088ZM41.6772 9.6956C42.3802 7.92526 43.0832 6.15492 43.7603 4.3738C44.1848 6.14279 44.5548 7.92526 44.9479 9.70234C43.8572 9.69964 42.7665 9.70908 41.6772 9.6956Z" fill="#0E4595"/>
</svg>
