<svg width="40" height="24" viewBox="0 0 40 24" fill="none" xmlns="http://www.w3.org/2000/svg">
<path d="M20.3543 20.5581C22.8664 18.3256 24.2621 15.1628 24.2621 11.814C24.2621 8.37209 22.7734 5.2093 20.3543 3.06977C18.2143 1.11628 15.33 0 12.3526 0C5.8396 0 0.443115 5.30233 0.443115 11.814C0.443115 18.3256 5.74656 23.7209 12.3526 23.7209C15.33 23.6279 18.1213 22.5116 20.3543 20.5581Z" fill="#009DDD"/>
<path d="M27.8908 0.279083C24.3551 0.279083 20.9125 1.86048 18.5865 4.55815H21.0056C21.3778 4.93025 21.6569 5.39536 21.936 5.86048H17.656C17.3769 6.23257 17.1908 6.69769 17.0047 7.1628H22.6804C22.8664 7.5349 23.0525 8.00001 23.1456 8.37211H16.5395C16.4465 8.7442 16.2604 9.20932 16.1674 9.67443H23.5177C23.983 11.7209 23.8899 13.9535 23.1456 16H16.5395C16.7256 16.4651 16.8187 16.8372 17.0047 17.2093H22.6804C22.4943 17.6744 22.2151 18.0465 22.0291 18.5116H17.7491C18.0282 18.9768 18.3073 19.3488 18.6795 19.7209H21.0986C20.7265 20.1861 20.3543 20.5582 19.8891 20.9302C22.1221 22.8837 25.0064 24 27.9838 24C34.5898 24 39.9863 18.6977 39.9863 12.093C39.8933 5.58141 34.5898 0.279083 27.8908 0.279083Z" fill="#ED1C2E"/>
<path d="M11.0492 15.0698H9.56047L10.4909 10.3256L8.44396 15.0698H7.04831L6.76919 10.3256L5.83876 15.0698H4.44312L5.55963 8.93024H7.8857L7.97874 12.7442L9.74656 8.93024H12.1657L11.0492 15.0698ZM27.7969 14.9767C27.4247 15.0698 27.0525 15.1628 26.6804 15.1628C25.936 15.1628 25.4708 14.7907 25.4708 14.0465C25.4708 13.8605 25.4708 13.7674 25.4708 13.5814L25.5638 13.1163L25.6569 12.7442L26.3082 8.93024H27.7969L27.6108 10.0465H28.3551L28.169 11.2558H27.4247L27.0525 13.3023C27.0525 13.3954 27.0525 13.3954 27.0525 13.4884C27.0525 13.7674 27.2386 13.8605 27.5177 13.8605C27.7038 13.8605 27.7969 13.8605 27.8899 13.7674C27.983 13.8605 27.7969 14.9767 27.7969 14.9767ZM32.1699 10.1395C32.0768 10.0465 31.9838 10.0465 31.9838 10.0465H31.8908C31.7977 10.0465 31.7977 10.0465 31.7047 10.0465C31.2395 10.0465 30.8673 10.2326 30.4021 10.8837L30.4951 10.1395H29.0995L28.169 15.1628H29.6577C30.216 12.093 30.4021 11.5349 31.1464 11.5349C31.2395 11.5349 31.2395 11.5349 31.3325 11.5349H31.5186C31.6116 11.5349 32.1699 10.1395 32.1699 10.1395ZM21.8421 11.6279C21.8421 12.2791 22.2143 12.6512 22.9586 13.0233C23.6099 13.3023 23.703 13.3023 23.703 13.5814C23.703 13.8605 23.4239 14.0465 22.8656 14.0465C22.4004 14.0465 21.9352 13.9535 21.47 13.8605L21.2839 14.9767H21.3769L21.656 15.0698C21.7491 15.0698 21.8421 15.0698 22.0282 15.0698C22.4004 15.0698 22.6795 15.0698 22.8656 15.0698C24.4473 15.0698 25.1917 14.5116 25.1917 13.3954C25.1917 12.7442 24.9125 12.2791 24.1682 12C23.5169 11.7209 23.4239 11.7209 23.4239 11.4419C23.4239 11.1628 23.703 11.0698 24.1682 11.0698C24.4473 11.0698 24.9125 11.0698 25.2847 11.1628L25.4708 10.0465C25.0056 9.95349 24.5404 9.95349 24.1682 9.95349C22.4004 9.95349 21.8421 10.6977 21.8421 11.6279ZM15.8874 15.0698H14.6778V14.5116C14.3057 14.8837 13.7474 15.1628 13.0961 15.1628C12.2587 15.1628 11.7005 14.6047 11.7005 13.7674C11.7005 12.5581 12.6309 11.814 14.3057 11.814C14.4917 11.814 14.6778 11.814 14.957 11.814C14.957 11.6279 15.05 11.5349 15.05 11.5349C15.05 11.1628 14.7709 11.0698 14.1196 11.0698C13.6544 11.0698 13.1891 11.1628 12.91 11.1628L12.7239 11.2558H12.6309L12.817 10.1395C13.5613 9.95349 14.0265 9.86047 14.5848 9.86047C15.8874 9.86047 16.5387 10.3256 16.5387 11.3488C16.5387 11.6279 16.5387 11.814 16.4456 12.3721L16.1665 14.1395L15.9804 14.5116V14.7907V14.9767L15.8874 15.0698ZM14.7709 12.8372C14.6778 12.8372 14.5848 12.8372 14.3987 12.8372C13.5613 12.8372 13.0961 13.1163 13.0961 13.5814C13.0961 13.8605 13.2822 14.0465 13.6544 14.0465C14.3057 14.0465 14.7709 13.5814 14.7709 12.8372ZM20.8187 14.9767C20.3534 15.0698 19.7952 15.1628 19.33 15.1628C17.6552 15.1628 16.8178 14.4186 16.8178 12.9302C16.8178 11.2558 17.9343 9.95349 19.423 9.95349C20.6326 9.95349 21.47 10.6977 21.47 11.814C21.47 12.1861 21.3769 12.5581 21.2839 13.0233H18.3065C18.3065 13.1163 18.3065 13.1163 18.3065 13.2093C18.3065 13.7674 18.7717 14.0465 19.6091 14.0465C20.1674 14.0465 20.6326 13.9535 21.1908 13.7674C21.0978 13.6744 20.8187 14.9767 20.8187 14.9767ZM19.9813 12C19.9813 11.907 19.9813 11.814 19.9813 11.7209C19.9813 11.3488 19.7021 11.0698 19.2369 11.0698C18.7717 11.0698 18.3995 11.3488 18.3065 12C18.3995 12 19.9813 12 19.9813 12ZM36.822 12.8372C36.6359 14.5116 35.4264 15.2558 33.9377 15.2558C32.2629 15.2558 31.5186 14.2326 31.5186 12.9302C31.5186 11.1628 32.6351 9.95349 34.496 9.95349C36.0777 9.95349 36.9151 10.9767 36.9151 12.1861C36.822 12.4651 36.822 12.4651 36.822 12.8372ZM35.2403 12.1861C35.2403 11.6279 35.0542 11.1628 34.4029 11.1628C33.6586 11.1628 33.1934 12.093 33.1934 12.8372C33.1934 13.4884 33.4725 13.9535 34.0307 13.9535C34.3099 13.9535 35.0542 13.4884 35.1473 12.7442C35.2403 12.5581 35.2403 12.3721 35.2403 12.1861Z" fill="white"/>
</svg>
