<svg width="42" height="24" viewBox="0 0 42 24" fill="none" xmlns="http://www.w3.org/2000/svg">
<path d="M10.4679 0.25307C11.4876 0.019812 12.4595 -0.00985091 13.5011 0.00228392C16.3131 -0.027379 19.117 1.24138 21.1973 3.067C26.371 7.53936 25.167 8.3888 25.0127 10.3803C25.0427 10.4328 25.0496 10.5515 25.0523 10.6715C24.3247 12.3057 24.2756 14.4643 24.9636 14.4818C25.156 19.6203 21.4021 20.6679 21.1932 20.8607C19.278 22.5421 16.8264 23.6949 14.2546 23.8648C12.697 24.0063 11.6077 23.9686 10.3218 23.6423C6.9924 22.9048 4.05067 20.6854 2.41395 17.734C0.251672 13.9385 0.437323 8.95914 2.92312 5.35374C4.64311 2.77577 7.40738 0.896216 10.4679 0.25307Z" fill="#FF0004"/>
<path d="M26.1538 9.59016L36.1188 8.95645L35.8322 15.9003H26.1538C24.1198 14.4441 23.8742 10.9654 26.1538 9.59016Z" fill="white"/>
<path d="M26.4678 0.300273C27.5449 0.0157783 28.5127 0.0252165 29.613 0.00499181C30.2436 -0.00174976 31.0968 0.0980255 31.7179 0.223419C34.3757 0.761396 36.8451 2.19735 38.5911 4.25083C40.3015 6.25173 41.3526 8.81353 41.4263 11.44C41.5546 13.9304 40.8653 16.4477 39.4674 18.5254C37.6355 21.334 34.5491 23.3174 31.2019 23.8095C30.0184 23.8702 28.9932 24.0171 27.6459 23.8338C25.2516 23.5641 22.9651 22.4787 21.1932 20.8742C21.4021 20.6814 21.6478 20.4562 21.8525 20.2594L20.6062 20.2553L19.9305 19.5111L22.4368 19.5367L22.9869 18.8302L19.3667 18.7735L18.9245 18.1574L23.3323 18.1398L23.7994 17.3848L18.4835 17.4117L18.1559 16.7389C20.0493 16.7012 22.1901 16.7389 24.0835 16.7254L24.4134 15.9933L17.9198 15.9987L17.6358 15.3043L24.6605 15.2841L24.9499 14.4953C24.2619 14.4778 23.5329 14.4765 22.8463 14.4913C22.8859 14.2675 22.9214 14.0423 22.9582 13.8171C23.5411 13.8185 24.1254 13.8185 24.711 13.8198C25.2843 14.9834 26.8801 15.3124 27.9844 14.7448C28.0896 14.4711 28.1305 14.1798 28.2165 13.8994L28.2738 13.6378C28.2807 14.2486 28.5086 14.7232 28.9031 14.9079C29.527 15.2153 30.2655 15.0387 30.8415 14.7057C30.8688 14.7852 30.9248 14.943 30.9521 15.0225C31.2865 15.0171 31.6224 15.0144 31.9582 15.0144C32.1465 13.9897 32.365 12.9717 32.552 11.9484C32.7049 11.3565 32.2093 10.8239 31.6606 10.6769C30.9221 10.4895 30.1071 10.5043 29.3836 10.7443C29.1598 11.0369 29.1243 11.4212 29.0082 11.7596C29.6334 11.6463 30.2791 11.5236 30.9152 11.6288C31.1787 11.6612 31.2006 11.9322 31.2265 12.1614C30.473 12.2342 29.8 12.1371 29.112 12.5133C28.6861 12.729 28.4595 12.9663 28.3107 13.592C27.9189 13.7484 27.534 13.9884 27.093 13.9344C26.5033 13.9317 25.8986 13.5394 25.829 12.9286C25.758 12.1776 26.0037 11.3147 26.633 10.8441C27.2637 10.4059 28.0622 10.6351 28.7216 10.8751C28.7775 10.4949 28.8294 10.1147 28.8704 9.73173C27.6022 9.28679 25.8344 9.48634 25.0386 10.6985L25.0127 10.3938C22.4777 10.3843 19.9414 10.3978 17.4065 10.3816C17.442 10.1457 17.4788 9.90836 17.5143 9.67241L24.9581 9.7196L24.7601 8.94432L17.5375 8.92679L17.8065 8.2405L24.5963 8.23376L24.2858 7.48005C22.4088 7.48949 19.9305 7.48949 18.0535 7.48544L18.4666 6.82072C20.263 6.78836 22.172 6.83016 23.9711 6.80724L23.4606 6.06297C21.9576 6.04949 20.3305 6.08724 18.8275 6.05488L19.3258 5.39825L23.1248 5.39151L22.5015 4.61488L19.7612 4.58791L20.2759 3.89353L22.0081 3.9178C21.7488 3.62791 21.4853 3.34207 21.1973 3.0805C22.6784 1.70117 24.494 0.764093 26.4678 0.300273Z" fill="#FFAA00"/>
<path d="M2.04529 14.9942C2.39748 13.2158 2.64456 11.4171 3.01449 9.64273C3.64789 9.65621 4.27992 9.65351 4.91332 9.64408C5.04436 10.6567 5.05528 11.6773 5.09487 12.6953C5.57811 11.6328 5.97808 10.6513 6.46678 9.65082C7.13976 9.65621 7.81411 9.63059 8.48709 9.67644C8.1622 11.4508 7.87008 13.2319 7.51652 15.0023C7.14386 14.9955 6.77119 14.9955 6.39989 14.9969C6.64014 13.6755 6.89677 12.3569 7.10973 11.0315C6.48452 12.3259 6.00265 13.6823 5.4184 14.9955L4.13932 15.0023L4.10656 14.5479C4.06014 13.3681 3.9837 12.1897 3.90862 11.0113L3.19741 15.0036L2.04529 14.9942Z" fill="white"/>
<path d="M38.6014 9.7452C38.9781 9.7007 39.3589 9.72632 39.7383 9.74115C39.3603 11.4872 39.1296 13.2603 38.7679 15.0104C38.4022 15.0077 38.0091 15.0077 37.6461 15.0117C37.6502 14.9039 37.713 14.6868 37.7171 14.5789C37.3895 14.8526 36.9842 15.1196 36.5297 15.0616C35.5498 14.9942 34.997 14.1704 35.0462 13.3465C34.9411 12.1182 35.8391 10.623 37.2121 10.6728C37.6761 10.6755 37.9709 10.9465 38.308 11.1852C38.409 10.7039 38.4909 10.2373 38.6014 9.7452Z" fill="white"/>
<path d="M9.06963 10.7497C9.97721 10.5299 11.0663 10.4018 11.8702 10.9735C12.3274 11.2944 12.1963 11.9066 12.1322 12.3758C11.9561 13.2495 11.806 14.1299 11.6027 14.9996C11.2819 14.9956 10.9598 14.9983 10.6405 15.0063C10.635 14.9093 10.6255 14.7138 10.6214 14.6153C10.0263 15.0279 9.1638 15.2517 8.51826 14.8284C7.85088 14.347 7.94369 13.2913 8.51826 12.7735C9.16243 12.1425 10.0959 12.249 10.9326 12.2194C10.9653 12.005 10.9612 11.672 10.6855 11.6113C10.0454 11.4023 9.36988 11.6544 8.72161 11.7111C8.83079 11.3902 8.89357 11.045 9.06963 10.7497Z" fill="white"/>
<path d="M13.4451 10.6647C14.1384 10.5002 14.8959 10.5178 15.5946 10.6351L15.4254 11.56C14.8986 11.5492 14.2844 11.3268 13.8245 11.6625C13.6485 11.8607 13.8286 12.1452 14.0251 12.2382C14.4332 12.454 14.9682 12.4971 15.2412 12.9124C15.6342 13.6486 15.233 14.7002 14.3882 14.9092C13.5993 15.094 12.7586 15.0427 11.9739 14.858C12.0257 14.5438 12.0926 14.2324 12.1609 13.9209C12.7081 14.049 13.2895 14.1785 13.8491 14.045C14.0674 13.9452 14.1575 13.7402 14.0688 13.5178C13.658 13.1241 12.9824 13.1214 12.6358 12.6454C12.2291 11.9402 12.5921 10.8387 13.4451 10.6647Z" fill="white"/>
<path d="M34.2433 11.3025C34.5436 10.9034 34.9681 10.5812 35.5017 10.6418C35.4266 10.9627 35.3556 11.2836 35.2901 11.6045C34.953 11.6773 34.5723 11.7137 34.3198 11.974C34.0523 12.2086 33.9936 12.578 33.9295 12.907C33.7943 13.596 33.7343 14.2998 33.535 14.9753C33.1624 15.009 32.7871 14.9969 32.4146 14.9996C32.6356 13.5488 32.8936 12.1021 33.1693 10.6607C33.5419 10.6634 33.9158 10.6621 34.2898 10.658C34.272 10.8724 34.257 11.0868 34.2433 11.3025Z" fill="white"/>
<path d="M36.7468 11.9281C36.9638 11.6288 37.3855 11.5546 37.7212 11.6935C38.5729 12.2369 37.5124 14.2122 36.9146 14.0935C35.7805 14.0679 36.2063 12.5268 36.7468 11.9281Z" fill="#FFAA00"/>
<path d="M17.0093 12.4958C17.0147 12.4621 17.027 12.392 17.0325 12.3569L17.7817 12.3731C17.7531 12.5929 17.734 12.814 17.7244 13.0351L17.1021 13.0378L17.0093 12.4958Z" fill="#FFAA00"/>
<path d="M23.2038 12.3474C23.6487 12.3569 24.0937 12.3596 24.5399 12.3609C24.5263 12.5834 24.5208 12.8072 24.5263 13.031C24.0459 13.0243 23.5655 13.0216 23.0851 13.023C23.1206 12.7964 23.1574 12.5713 23.2038 12.3474Z" fill="#FFAA00"/>
<path d="M9.38268 13.4585C9.68976 12.9879 10.3107 12.9434 10.8239 12.9623C10.7707 13.2859 10.7311 13.6553 10.454 13.8764C10.1811 14.1501 9.59149 14.2553 9.42089 14.0827C9.29397 13.9614 9.21754 13.6405 9.38268 13.4585Z" fill="#FF0004"/>
<path d="M29.7565 13.3762C30.0772 12.9488 30.66 12.9731 31.1404 12.9623C31.1022 13.2859 31.0749 13.6621 30.7842 13.8737C30.5167 14.1582 29.8875 14.2095 29.7442 14.0908C29.4358 13.9344 29.5327 13.5744 29.7565 13.3762Z" fill="#FFAA00"/>
<path d="M23.0854 13.023C23.5658 13.0216 24.0462 13.0243 24.5266 13.031C24.5607 13.2994 24.6235 13.5636 24.7109 13.8198C24.1254 13.8185 23.5413 13.8185 22.9585 13.8171C23.0008 13.5528 23.0458 13.2872 23.0854 13.023Z" fill="#FF0004"/>
<path d="M18.8275 10.8441C19.5754 10.4612 20.6003 10.4207 21.2759 10.9708C21.8764 11.5304 21.7167 12.4122 21.5762 13.1268C20.6727 13.1254 19.7692 13.1133 18.8657 13.1322C18.9803 13.4639 19.1305 13.8266 19.4785 13.9803C20.1309 14.2108 20.8501 14.0693 21.467 13.7942C21.396 14.1421 21.3264 14.4899 21.2595 14.8391C20.367 15.0522 19.3475 15.1223 18.5272 14.6409C17.9608 14.32 17.7316 13.6486 17.7247 13.0351C17.7343 12.814 17.7534 12.5929 17.7821 12.3731C17.9404 11.769 18.2434 11.1461 18.8275 10.8441Z" fill="white"/>
<path d="M19.0459 12.2976C19.2083 11.9119 19.4963 11.4023 20.004 11.4872C20.4257 11.5007 20.5731 11.9591 20.6468 12.2976C20.1132 12.3164 19.5795 12.3178 19.0459 12.2976Z" fill="#FF0004"/>
<path d="M16.3897 9.64273C16.765 9.64947 17.1403 9.64812 17.5143 9.67239C17.4788 9.90835 17.4419 10.1457 17.4064 10.3816C17.3982 10.449 17.3791 10.5852 17.3696 10.6526C17.5961 10.6648 17.8254 10.6701 18.0533 10.6769C18.0001 10.9668 17.9442 11.258 17.8896 11.5479C17.6589 11.5439 17.4269 11.5385 17.199 11.5331C17.1376 11.8068 17.0803 12.0805 17.0325 12.3569C17.027 12.3919 17.0147 12.4621 17.0093 12.4958C16.9178 13.0149 16.6763 13.9236 16.7732 14.0585C16.9533 14.2418 17.3778 14.0895 17.6821 14.0962L17.4351 14.8621C16.9956 15.0454 16.4866 15.0427 16.0307 14.9281C15.7291 14.8742 15.4889 14.583 15.5804 14.2755C15.8178 12.7263 16.1181 11.1866 16.3897 9.64273Z" fill="white"/>
<path d="M22.3398 10.689C22.7288 10.6432 23.1232 10.6648 23.5149 10.6661C23.4903 10.8063 23.4398 11.0881 23.4139 11.2284C23.7783 10.832 24.2587 10.5947 24.8019 10.5529C24.6518 10.9371 24.5071 11.3227 24.3843 11.7165C23.908 11.7299 23.4289 11.9025 23.2037 12.3475C23.1573 12.5713 23.1205 12.7965 23.085 13.023C23.0454 13.2872 23.0004 13.5529 22.9581 13.8171C22.9212 14.0423 22.8857 14.2675 22.8462 14.4913C22.8161 14.6531 22.7793 14.8135 22.7342 14.9713C22.3412 15.0104 21.9468 14.9956 21.5537 14.9969C21.8403 13.5663 22.0327 12.1156 22.3398 10.689Z" fill="white"/>
</svg>
