<svg width="55" height="16" viewBox="0 0 55 16" fill="none" xmlns="http://www.w3.org/2000/svg">
<path fill-rule="evenodd" clip-rule="evenodd" d="M15.5426 2.87312e-07V0.00659466C15.5359 0.00659466 13.4328 2.51555e-07 12.872 1.98491C12.3579 3.80496 10.9092 8.82987 10.8691 8.96835H10.4685C10.4685 8.96835 8.9864 3.83133 8.46565 1.97831C7.90484 -0.00659415 5.79512 2.87312e-07 5.79512 2.87312e-07H0.988159V15.1011H5.79512V6.13277H5.99541H6.1957L8.99975 15.1011H12.3379L15.142 6.13936H15.5426V15.1011H20.3495V2.87312e-07H15.5426Z" fill="#00AE41"/>
<path fill-rule="evenodd" clip-rule="evenodd" d="M33.1012 0C33.1012 0 31.6925 0.125293 31.0316 1.58265L27.6266 8.96835H27.226V0H22.4191V15.1011H26.959C26.959 15.1011 28.4345 14.9692 29.0954 13.5185L32.4336 6.13277H32.8342V15.1011H37.6412V0H33.1012Z" fill="#00AE41"/>
<path fill-rule="evenodd" clip-rule="evenodd" d="M39.7776 6.85815V15.1011H44.5846V10.2872H49.7921C52.062 10.2872 53.9848 8.85625 54.6992 6.85815H39.7776Z" fill="#00AE41"/>
<path fill-rule="evenodd" clip-rule="evenodd" d="M49.7924 0H39.1035C39.6376 2.87515 41.8208 5.18318 44.6449 5.93494C45.2858 6.1064 45.9601 6.19872 46.6545 6.19872H54.8931C54.9665 5.85581 54.9999 5.50631 54.9999 5.14362C54.9999 2.30144 52.6699 0 49.7924 0Z" fill="url(#paint0_linear)"/>
<defs>
<linearGradient id="paint0_linear" x1="39.1048" y1="3.09936" x2="54.9999" y2="3.09936" gradientUnits="userSpaceOnUse">
<stop offset="0.3" stop-color="#00B4E6"/>
<stop offset="1" stop-color="#088CCB"/>
</linearGradient>
</defs>
</svg>
